<?xml version="1.0" standalone="no"?><!DOCTYPE svg PUBLIC "-//W3C//DTD SVG 1.1//EN" "http://www.w3.org/Graphics/SVG/1.1/DTD/svg11.dtd"><svg class="icon" style="width: 1em;height: 1em;vertical-align: middle;fill: currentColor;overflow: hidden;" viewBox="0 0 1024 1024" version="1.1" xmlns="http://www.w3.org/2000/svg" p-id="8083"><path d="M160 160m64 0l448 0q64 0 64 64l0 576q0 64-64 64l-448 0q-64 0-64-64l0-576q0-64 64-64Z" fill="#226CFF" p-id="8084"></path><path d="M768 480m48 0l0 0q48 0 48 48l0 288q0 48-48 48l0 0q-48 0-48-48l0-288q0-48 48-48Z" fill="#7FF298" p-id="8085"></path><path d="M288 352m32 0l256 0q32 0 32 32l0 0q0 32-32 32l-256 0q-32 0-32-32l0 0q0-32 32-32Z" fill="#FFFFFF" p-id="8086"></path><path d="M288 608m32 0l256 0q32 0 32 32l0 0q0 32-32 32l-256 0q-32 0-32-32l0 0q0-32 32-32Z" fill="#FFFFFF" p-id="8087"></path><path d="M288 480m32 0l256 0q32 0 32 32l0 0q0 32-32 32l-256 0q-32 0-32-32l0 0q0-32 32-32Z" fill="#FFFFFF" p-id="8088"></path></svg>